<?xml version="1.0" encoding="UTF-8"?>
<svg id="Layer_2" xmlns="http://www.w3.org/2000/svg" viewBox="0 0 573.22 448.83">
  <defs>
    <style>
      .cls-1 {
        fill: #55495b;
        stroke: #3d2c4c;
      }

      .cls-1, .cls-2, .cls-3, .cls-4, .cls-5 {
        stroke-miterlimit: 10;
        stroke-width: 4px;
      }

      .cls-2 {
        fill: #a31656;
        stroke: #600932;
      }

      .cls-3 {
        fill: #ddbace;
        stroke: #301b24;
      }

      .cls-4 {
        fill: #dcd5e0;
      }

      .cls-4, .cls-5 {
        stroke: #544360;
      }

      .cls-5 {
        fill: #908696;
      }
    </style>
  </defs>
  <g id="Hals">
    <rect class="cls-5" x="228.19" y="334.79" width="121.21" height="57.32"/>
  </g>
  <g id="Ramme">
    <rect class="cls-5" x="6.36" y="2" width="564.85" height="332.79" rx="17.88" ry="17.88"/>
  </g>
  <g id="Skjerm">
    <path class="cls-3" d="M63.87,28.72h457.98c7.98,0,14.46,6.48,14.46,14.46v250.43c0,7.98-6.48,14.46-14.46,14.46H55.44c-7.98,0-14.46-6.48-14.46-14.46V51.61c0-12.64,10.26-22.89,22.89-22.89Z"/>
    <rect class="cls-4" x="40.98" y="28.72" width="495.33" height="282.96" rx="12.98" ry="12.98"/>
    <rect class="cls-2" x="65.67" y="47.15" width="51.44" height="24.18" rx="4.68" ry="4.68"/>
    <line class="cls-2" x1="76.31" y1="53.85" x2="100.95" y2="66.38"/>
    <line class="cls-2" x1="100.53" y1="53.85" x2="77.15" y2="67.21"/>
  </g>
  <g id="Fjes">
    <polygon class="cls-1" points="220.46 138.19 130.15 86.05 107.58 125.14 164.73 158.14 107.58 191.13 130.15 230.22 220.46 178.08 220.46 138.19"/>
    <polygon class="cls-1" points="355.96 138.19 446.28 86.05 468.85 125.14 411.7 158.14 468.85 191.13 446.28 230.22 355.96 178.08 355.96 138.19"/>
    <rect class="cls-1" x="244.33" y="191.84" width="88.93" height="34.48"/>
  </g>
  <g id="Bunn">
    <rect class="cls-5" x="107.58" y="392.11" width="361.27" height="54.72" rx="10.85" ry="10.85"/>
  </g>
</svg>