<?xml version="1.0" encoding="UTF-8"?>
<svg id="Layer_2" xmlns="http://www.w3.org/2000/svg" version="1.1" viewBox="0 0 573.2 448.8">
  <!-- Generator: Adobe Illustrator 29.0.0, SVG Export Plug-In . SVG Version: 2.1.0 Build 186)  -->
  <defs>
    <style>
      .st0 {
        fill: #55495b;
        stroke: #3d2c4c;
      }

      .st0, .st1, .st2, .st3, .st4, .st5 {
        stroke-miterlimit: 10;
        stroke-width: 4px;
      }

      .st1 {
        fill: none;
      }

      .st1, .st2 {
        stroke: #600932;
      }

      .st2 {
        fill: #a31656;
      }

      .st3 {
        fill: #ddbace;
        stroke: #301b24;
      }

      .st4 {
        fill: #dcd5e0;
      }

      .st4, .st5 {
        stroke: #544360;
      }

      .st5 {
        fill: #908696;
      }
    </style>
  </defs>
  <g id="Hals">
    <rect class="st5" x="228.2" y="334.8" width="121.2" height="57.3"/>
  </g>
  <g id="Ramme">
    <rect class="st5" x="6.4" y="2" width="564.8" height="332.8" rx="17.9" ry="17.9"/>
  </g>
  <g id="Skjerm">
    <path class="st3" d="M63.9,28.7h458c8,0,14.5,6.5,14.5,14.5v250.4c0,8-6.5,14.5-14.5,14.5H55.4c-8,0-14.5-6.5-14.5-14.5V51.6c0-12.6,10.3-22.9,22.9-22.9Z"/>
    <rect class="st4" x="41" y="28.7" width="495.3" height="283" rx="13" ry="13"/>
    <rect class="st2" x="65.7" y="47.2" width="51.4" height="24.2" rx="4.7" ry="4.7"/>
    <line class="st1" x1="76.3" y1="53.8" x2="100.9" y2="66.4"/>
    <line class="st1" x1="100.5" y1="53.8" x2="77.2" y2="67.2"/>
  </g>
  <g id="Fjes">
    <polygon class="st0" points="220.5 138.2 130.1 86.1 107.6 125.1 164.7 158.1 107.6 191.1 130.1 230.2 220.5 178.1 220.5 138.2"/>
    <polygon class="st0" points="356 138.2 446.3 86.1 468.9 125.1 411.7 158.1 468.9 191.1 446.3 230.2 356 178.1 356 138.2"/>
    <rect class="st0" x="244.3" y="191.8" width="88.9" height="34.5"/>
  </g>
  <g id="Bunn">
    <rect class="st5" x="107.6" y="392.1" width="361.3" height="54.7" rx="10.9" ry="10.9"/>
  </g>
</svg>